<?xml version="1.0" encoding="UTF-8" standalone="no"?>
<svg width="1600px" height="1600px" xmlns="http://www.w3.org/2000/svg" xmlns:xlink="http://www.w3.org/1999/xlink" xmlns:serif="http://www.serif.com/"   viewBox="0 0 512 512" version="1.1" xml:space="preserve" style="fill-rule:evenodd;clip-rule:evenodd;stroke-linejoin:round;stroke-miterlimit:2;">
  <g>
    <g>
      <path d="M510.861,226.563c-18.65,14.514 -35.111,32.955 -43.54,54.351c-8.204,20.684 -12.028,43.071 -25.221,61.669c-14.982,23.395 -37.404,45.174 -63.128,55.394c-15.47,5.545 -31.391,10.012 -48.807,10.794c-4.206,0.295 -9.038,-0.4 -13.331,-1.026c-5.545,-29.27 -0,-60.956 1.929,-90.625c2.52,-23.483 8.291,-45.661 13.349,-68.152c4.38,-15.991 9.056,-31.843 15.069,-47.208l0.87,0c5.475,7.891 2.485,18.963 1.79,28.019c-4.137,25.133 -5.301,53.464 5.388,75.938c4.919,11.09 15.608,19.85 25.828,25.846c10.082,5.163 22.318,2.816 31.686,-2.103c18.129,-11.645 25.933,-32.312 23.344,-53.325c-3.268,-26.837 -22.544,-47.051 -35.58,-69.856c-1.269,-1.564 -0.382,-2.885 0,-4.519c1.703,-1.964 4.293,-1.79 6.466,-0.869c5.614,3.355 8.03,9.386 12.271,14.218c9.195,13.105 17.155,26.611 26.281,39.716c3.528,4.85 8.308,6.57 13.592,6.883c1.164,-0.469 2.503,-0.626 3.424,-1.477c13.123,-15 24.681,-34.989 44.895,-40.36c3.355,-0.156 6.24,3.981 3.425,6.692Z" style="fill:#ec1e25;"></path>
      <path d="M328.444,219.228c-4.675,14.618 -8.742,28.662 -13.192,43.332c-2.711,-8.656 -5.458,-17.799 -9.212,-26.298c-9.038,-21.24 -21.987,-41.854 -38.882,-58.853c-20.04,-18.58 -42.914,-33.337 -70.237,-35.823c-19.415,-4.293 -41.907,-2.503 -60.174,3.442c-12.636,3.493 -23.882,10.498 -35.197,17.225c-16.234,11.158 -26.472,28.175 -35.753,44.496c-7.022,17.329 -13.819,35.284 -11.872,55.811c-0.938,31.373 10.238,59.809 31.46,82.196c14.201,11.871 29.427,23.099 47.069,27.549c27.792,8.047 59.948,2.729 82.578,-12.88c11.628,-7.96 18.737,-19.432 25.689,-31.06c5.614,-13.905 8.517,-28.418 8.813,-44.252c-2.26,-32.486 -16.078,-63.859 -45.105,-81.727c-17.242,-10.307 -42.618,-10.238 -60.347,-0.869c-23.343,11.784 -34.884,36.066 -34.346,61.512c-0.608,20.058 8.986,37.387 24.595,50.041c10.846,8.968 28.661,8.36 40.811,3.198c7.039,-4.45 13.592,-10.464 15.539,-18.494c4.919,-10.776 3.128,-24.351 -2.66,-34.345c-3.441,-5.788 -9.75,-10.533 -16.373,-11.872c-4.067,-0.173 -9.455,-0.712 -13.105,1.339c-2.746,2.259 -5.475,4.988 -5.875,8.412c0.156,3.042 0.4,5.389 1.721,7.978c5.405,-1.738 12.723,-2.503 17.729,0.609c5.683,4.449 7.56,11.784 6.222,18.98c-0.539,5.214 -2.624,10.133 -6.848,13.418c-6.953,6.414 -18.337,4.363 -26.315,1.704c-16.373,-9.508 -21.066,-27.776 -20.927,-45.73c0.538,-18.807 10.95,-37.544 28.279,-45.504c12.549,-4.763 27.619,-3.355 40.029,1.338c17.729,7.404 33.407,25.516 37.543,44.548c7.092,21.309 5.302,48.946 -6.013,67.995c-16.773,23.274 -42.22,33.72 -70.933,32.312c-33.981,-2.555 -66.605,-24.89 -77.694,-57.984c-6.24,-23.256 -10.829,-52.63 -0.835,-75.73c8.239,-26.906 31.13,-51.761 57.584,-62.051c13.731,-6.083 29.896,-8.916 45.296,-8.43c9.82,-0.313 19.119,1.947 28.244,3.911c26.541,8.726 54.647,25.29 69.456,51.031c19.05,31.478 32.572,66.032 30,105.696c-1.339,35.458 -22.266,65.736 -49.415,87.358c-38.013,27.462 -89.861,32.711 -137.851,25.046c-31.773,-5.927 -59.565,-26.141 -80.631,-51.987c-29.827,-36.518 -38.952,-83.586 -37.074,-131.767c2.485,-39.716 22.56,-72.254 48.076,-102.254c33.789,-38.552 79.78,-58.61 130.898,-60.8c26.142,0.713 52.057,4.45 73.992,16.634c23.743,11.228 45.904,29.34 59.948,52.613c7.022,11.924 14.6,24.751 25.846,33.859c0.539,0.087 1.078,0.087 1.547,0.417c-3.042,11.924 -8.43,23.013 -12.098,34.71Z" style="fill:#ec1e25;"></path>
      <path d="M304.093,413.533c-19.119,11.229 -40.967,15.678 -64.467,16.147c-0.399,-0.139 -0.399,-0.521 -0.695,-0.869c23.5,-12.931 49.571,-30.591 61.721,-55.567l0.643,-0c1.234,12.723 1.86,27.097 2.798,40.289Z" style="fill:#ec1e25;"></path>
    </g>
  </g>
</svg>
